<svg width="512" height="512" viewBox="0 0 512 512" fill="none" xmlns="http://www.w3.org/2000/svg">
<path d="M511.612 15.6108C513.497 7.74617 508.275 0.000591838 501.089 0.000581597L435.638 0.00048833C430.666 0.000481245 426.324 3.81406 425.08 9.27299L314.032 496.539C312.248 504.368 317.46 512.001 324.59 512.001H384.332C389.254 512.001 393.565 508.263 394.856 502.877L511.612 15.6108Z" fill="url(#paint0_linear_1486_11)"/>
<path d="M199.439 13.4934C199.264 12.7454 199.16 11.9778 199.223 11.2122C199.741 4.94608 204.426 -8.09643e-05 210.08 0.00048833H273.356C278.328 0.000481245 282.67 3.81406 283.914 9.27299L394.962 496.539C396.747 504.368 391.534 512.001 384.404 512.001H324.662C319.74 512.001 315.429 508.263 314.138 502.877L199.439 13.4934Z" fill="url(#paint1_linear_1486_11)"/>
<path d="M273.331 350.609C279.354 350.609 284.28 356.154 283.819 362.964C282.67 379.927 279.162 396.605 273.404 412.371C266.252 431.952 255.769 449.743 242.554 464.73C229.339 479.717 213.651 491.605 196.385 499.715C179.119 507.826 160.613 512 141.924 512C123.236 512 104.73 507.826 87.4639 499.715C70.1978 491.605 54.5095 479.717 41.2946 464.73C28.0797 449.743 17.597 431.952 10.4452 412.371C4.68671 396.605 1.1784 379.927 0.0299419 362.964C-0.431123 356.154 4.49472 350.609 10.5175 350.609H73.7671C79.7898 350.609 84.5674 356.195 85.7077 362.902C86.4372 367.192 87.5486 371.399 89.0303 375.456C91.9075 383.333 96.1247 390.491 101.441 396.52C106.757 402.549 113.069 407.332 120.015 410.594C126.961 413.857 134.406 415.537 141.924 415.537C149.443 415.537 156.888 413.857 163.834 410.594C170.78 407.332 177.091 402.549 182.408 396.52C187.724 390.491 191.941 383.333 194.818 375.456C196.3 371.399 197.412 367.192 198.141 362.902C199.281 356.195 204.059 350.609 210.082 350.609H273.331Z" fill="white"/>
<path d="M284.236 350.609C284.236 371.803 280.555 392.79 273.404 412.371C266.252 431.952 255.769 449.743 242.554 464.73C229.339 479.717 213.651 491.605 196.385 499.715C179.119 507.826 160.613 512 141.924 512V415.537C149.443 415.537 156.888 413.857 163.834 410.594C170.78 407.332 177.091 402.549 182.408 396.52C187.724 390.491 191.941 383.333 194.818 375.456C197.696 367.578 199.177 359.135 199.177 350.609H284.236Z" fill="white"/>
<path d="M199.176 12.3672C199.176 5.53697 204.059 0 210.082 0H273.331C279.354 0 284.236 5.53697 284.236 12.3672V351.227H199.176V12.3672Z" fill="white"/>
<defs>
<linearGradient id="paint0_linear_1486_11" x1="470.168" y1="-0.000108622" x2="324.739" y2="503.221" gradientUnits="userSpaceOnUse">
<stop stop-color="#298DFF"/>
<stop offset="1" stop-color="#0070F0"/>
</linearGradient>
<linearGradient id="paint1_linear_1486_11" x1="236.409" y1="-0.000143208" x2="389.813" y2="501.555" gradientUnits="userSpaceOnUse">
<stop stop-color="#0070F0"/>
<stop offset="1" stop-color="#298DFF"/>
</linearGradient>
</defs>
</svg>
