<svg width="1000" height="1000" viewBox="0 0 1000 1000" fill="none" xmlns="http://www.w3.org/2000/svg">
<path d="M999.243 30.49C1002.92 15.1294 992.725 0.00130089 978.689 0.00128089L850.856 0.00109873C841.145 0.00108489 832.664 7.44948 830.234 18.1115L613.344 969.803C609.859 985.094 620.039 1000 633.965 1000H750.65C760.262 1000 768.683 992.701 771.204 982.181L999.243 30.49Z" fill="url(#paint0_linear_1501_13)"/>
<path d="M389.279 25.2814C389.103 24.5334 389.007 23.7669 389.039 22.9993C389.576 10.2446 398.941 -4.62957e-05 410.314 0.00109873H533.899C543.61 0.00108489 552.091 7.44948 554.521 18.1115L771.411 969.803C774.896 985.094 764.716 1000 750.79 1000H634.105C624.493 1000 616.072 992.701 613.552 982.181L389.279 25.2814Z" fill="url(#paint1_linear_1501_13)"/>
<path d="M533.85 684.783C545.613 684.783 555.234 695.613 554.333 708.914C552.09 742.045 545.238 774.618 533.991 805.411C520.023 843.655 499.549 878.405 473.738 907.675C447.928 936.946 417.287 960.165 383.564 976.006C349.841 991.847 313.697 1000 277.196 1000C240.695 1000 204.551 991.847 170.828 976.006C137.105 960.165 106.464 936.946 80.6534 907.675C54.8431 878.405 34.3692 843.655 20.4007 805.411C9.15373 774.618 2.30156 742.045 0.0584803 708.914C-0.842036 695.613 8.77875 684.783 20.5419 684.783H144.076C155.839 684.783 165.171 695.693 167.398 708.792C168.823 717.172 170.993 725.389 173.887 733.312C179.507 748.697 187.743 762.677 198.127 774.452C208.51 786.228 220.837 795.569 234.404 801.942C247.971 808.315 262.511 811.595 277.196 811.595C291.88 811.595 306.421 808.315 319.988 801.942C333.555 795.569 345.882 786.228 356.265 774.452C366.649 762.677 374.885 748.697 380.505 733.312C383.399 725.389 385.569 717.172 386.994 708.792C389.221 695.693 398.552 684.783 410.316 684.783H533.85Z" fill="white"/>
<path d="M555.149 684.783C555.149 726.178 547.96 767.167 533.991 805.411C520.023 843.655 499.549 878.405 473.738 907.675C447.928 936.946 417.287 960.165 383.564 976.006C349.841 991.847 313.697 1000 277.196 1000V811.595C291.88 811.595 306.421 808.315 319.988 801.942C333.555 795.569 345.882 786.228 356.265 774.452C366.649 762.677 374.885 748.697 380.505 733.312C386.124 717.926 389.016 701.436 389.016 684.783H555.149Z" fill="white"/>
<path d="M389.016 24.1546C389.016 10.8144 398.552 0 410.315 0H533.85C545.613 0 555.149 10.8144 555.149 24.1546V685.991H389.016V24.1546Z" fill="white"/>
<defs>
<linearGradient id="paint0_linear_1501_13" x1="918.297" y1="-6.71931e-05" x2="634.257" y2="982.853" gradientUnits="userSpaceOnUse">
<stop stop-color="#3292FF"/>
<stop offset="1" stop-color="#10B981"/>
</linearGradient>
<linearGradient id="paint1_linear_1501_13" x1="461.737" y1="-0.000134744" x2="761.355" y2="979.6" gradientUnits="userSpaceOnUse">
<stop stop-color="#3292FF"/>
<stop offset="1" stop-color="#10B981"/>
</linearGradient>
</defs>
</svg>
