<svg width="1000" height="1000" viewBox="0 0 1000 1000" fill="none" xmlns="http://www.w3.org/2000/svg">
<path d="M554.521 18.1113L554.688 18.8426V731.026L389.531 26.3542C389.188 24.8933 388.985 23.3942 389.108 21.8988C390.12 9.66033 399.271 -0.00012603 410.314 0.000976657H533.9C543.61 0.000976657 552.091 7.44936 554.521 18.1113Z" fill="white"/>
<path d="M612.864 979.247L570.313 797.693V87.4034L681.636 575.879L759.657 997.826C756.977 999.217 753.982 1000 750.79 1000H633.966C622.963 1000 614.299 990.695 612.864 979.247Z" fill="white"/>
<path d="M772.022 978.765L999.243 30.4898C1002.92 15.1292 992.725 0.00118527 978.689 0.00115547L850.856 0.000976657C841.146 0.000976657 832.664 7.44936 830.234 18.1113L700.031 589.428L772.022 978.765Z" fill="white"/>
<path d="M533.849 684.782C545.613 684.782 555.233 695.612 554.333 708.914C552.09 742.045 545.238 774.618 533.991 805.411C520.022 843.655 499.548 878.404 473.738 907.675C447.928 936.945 417.286 960.164 383.564 976.005C349.841 991.846 313.697 1000 277.196 1000C240.694 1000 204.551 991.846 170.828 976.005C137.105 960.164 106.464 936.945 80.6533 907.675C54.843 878.404 34.3692 843.655 20.4007 805.411C9.15373 774.618 2.30156 742.045 0.0584803 708.914C-0.842035 695.612 8.77875 684.782 20.5419 684.782H144.076C155.839 684.782 165.171 695.692 167.398 708.791C168.823 717.172 170.993 725.388 173.887 733.311C179.507 748.697 187.743 762.676 198.127 774.452C208.51 786.227 220.837 795.568 234.404 801.941C247.971 808.314 262.511 811.594 277.196 811.594C291.88 811.594 306.421 808.314 319.988 801.941C333.554 795.568 345.881 786.227 356.265 774.452C366.648 762.676 374.885 748.697 380.504 733.311C383.398 725.388 385.569 717.172 386.994 708.791C389.221 695.692 398.552 684.782 410.315 684.782H533.849Z" fill="white"/>
<path d="M555.149 684.782C555.149 726.177 547.959 767.167 533.991 805.411C520.022 843.655 499.548 878.404 473.738 907.675C447.928 936.945 417.286 960.164 383.564 976.005C349.841 991.846 313.697 1000 277.196 1000V811.594C291.88 811.594 306.421 808.314 319.988 801.941C333.554 795.568 345.881 786.227 356.265 774.452C366.648 762.676 374.885 748.697 380.504 733.311C386.124 717.926 389.016 701.436 389.016 684.782H555.149Z" fill="white"/>
<path d="M389.016 24.1546C389.016 10.8144 398.552 0 410.315 0H533.85C545.613 0 555.149 10.8144 555.149 24.1546V685.99H389.016V24.1546Z" fill="white"/>
</svg>
