<svg width="1000" height="1000" viewBox="0 0 1000 1000" fill="none" xmlns="http://www.w3.org/2000/svg">
<path d="M88.6379 262.5C76.6806 255.596 61.3299 259.669 55.0323 271.956C3.73573 372.041 -12.4284 486.764 9.60736 597.545C33.2726 716.518 99.3822 822.831 195.619 896.677C291.856 970.522 411.657 1006.86 532.702 998.929C653.746 990.996 767.778 939.328 853.553 853.553C939.328 767.778 990.996 653.746 998.929 532.702C1006.86 411.657 970.522 291.856 896.677 195.619C822.831 99.3823 716.519 33.2727 597.545 9.60737C486.764 -12.4284 372.041 3.73571 271.956 55.0323C259.669 61.3298 255.597 76.6806 262.5 88.6379V88.6379C269.404 100.595 284.667 104.624 296.989 98.3946C386.538 53.1248 488.909 38.9778 587.791 58.6466C694.867 79.9454 790.548 139.444 857.009 226.057C923.47 312.671 956.177 420.492 949.037 529.431C941.896 638.371 895.395 741.001 818.198 818.198C741.001 895.396 638.371 941.896 529.431 949.037C420.491 956.177 312.671 923.47 226.057 857.009C139.444 790.548 79.9454 694.867 58.6466 587.791C38.9778 488.909 53.1248 386.538 98.3946 296.989C104.624 284.667 100.595 269.404 88.6379 262.5V262.5Z" fill="white"/>
<circle cx="170" cy="170" r="60" fill="white"/>
<path d="M755.612 259.611C757.496 251.746 752.275 244.001 745.088 244.001L679.638 244C674.666 244 670.324 247.814 669.08 253.273L558.032 740.538C556.248 748.367 561.46 756 568.59 756H628.333C633.254 756 637.566 752.262 638.856 746.876L755.612 259.611Z" fill="url(#paint0_linear_37_654)"/>
<path d="M443.44 257.493C443.264 256.745 443.16 255.978 443.223 255.212C443.741 248.946 448.427 244 454.081 244H517.356C522.328 244 526.671 247.814 527.915 253.273L638.962 740.538C640.747 748.367 635.535 756 628.404 756H568.662C563.74 756 559.429 752.262 558.138 746.876L443.44 257.493Z" fill="url(#paint1_linear_37_654)"/>
<path d="M517.331 594.608C523.353 594.608 528.279 600.153 527.818 606.963C526.67 623.927 523.161 640.604 517.403 656.37C510.251 675.951 499.769 693.742 486.554 708.729C473.339 723.716 457.65 735.604 440.384 743.714C423.118 751.825 404.613 755.999 385.924 755.999C367.235 755.999 348.73 751.825 331.464 743.714C314.198 735.604 298.509 723.716 285.294 708.729C272.08 693.742 261.597 675.951 254.445 656.37C248.687 640.604 245.178 623.927 244.03 606.963C243.569 600.153 248.495 594.608 254.517 594.608H317.767C323.79 594.608 328.567 600.194 329.708 606.901C330.437 611.192 331.548 615.398 333.03 619.455C335.907 627.332 340.124 634.49 345.441 640.519C350.757 646.548 357.069 651.331 364.015 654.594C370.961 657.857 378.406 659.536 385.924 659.536C393.443 659.536 400.887 657.857 407.833 654.594C414.78 651.331 421.091 646.548 426.407 640.519C431.724 634.49 435.941 627.332 438.818 619.455C440.3 615.398 441.411 611.192 442.141 606.901C443.281 600.194 448.058 594.608 454.081 594.608H517.331Z" fill="white"/>
<path d="M528.236 594.608C528.236 615.802 524.555 636.789 517.403 656.37C510.251 675.951 499.769 693.742 486.554 708.729C473.339 723.716 457.65 735.604 440.384 743.714C423.118 751.825 404.613 755.999 385.924 755.999V659.536C393.443 659.536 400.887 657.857 407.833 654.594C414.78 651.331 421.091 646.548 426.407 640.519C431.724 634.49 435.941 627.332 438.818 619.455C441.695 611.578 443.176 603.135 443.176 594.608H528.236Z" fill="white"/>
<path d="M443.176 256.367C443.176 249.537 448.058 244 454.081 244H517.331C523.353 244 528.236 249.537 528.236 256.367V595.227H443.176V256.367Z" fill="white"/>
<defs>
<linearGradient id="paint0_linear_37_654" x1="714.168" y1="244" x2="568.74" y2="747.22" gradientUnits="userSpaceOnUse">
<stop stop-color="#3D7CFF"/>
<stop offset="1" stop-color="#29437A"/>
</linearGradient>
<linearGradient id="paint1_linear_37_654" x1="480.409" y1="244" x2="633.813" y2="745.554" gradientUnits="userSpaceOnUse">
<stop stop-color="#29437A"/>
<stop offset="1" stop-color="#3D7CFF"/>
</linearGradient>
</defs>
</svg>
