<svg width="1000" height="1000" viewBox="0 0 1000 1000" fill="none" xmlns="http://www.w3.org/2000/svg">
<path d="M999.241 30.4901C1002.92 15.1295 992.723 0.00142296 978.687 0.00140296L850.854 0.0012208C841.143 0.00120696 832.662 7.44959 830.232 18.1115L613.342 969.801C609.857 985.092 620.037 1000 633.964 1000H750.648C760.26 1000 768.681 992.699 771.202 982.18L999.241 30.4901Z" fill="url(#paint0_linear_37_671)"/>
<path d="M389.277 25.2815C389.102 24.5335 389.006 23.767 389.038 22.9994C389.575 10.2447 398.94 7.57766e-05 410.313 0.0012208H533.898C543.608 0.00120696 552.089 7.44959 554.519 18.1115L771.409 969.801C774.894 985.092 764.714 1000 750.788 1000H634.104C624.492 1000 616.071 992.699 613.55 982.18L389.277 25.2815Z" fill="url(#paint1_linear_37_671)"/>
<path d="M533.849 684.782C545.612 684.782 555.233 695.612 554.332 708.913C552.089 742.044 545.237 774.617 533.99 805.41C520.022 843.654 499.548 878.403 473.738 907.674C447.927 936.944 417.286 960.163 383.563 976.004C349.841 991.845 313.697 999.999 277.195 999.999C240.694 999.999 204.55 991.845 170.828 976.004C137.105 960.163 106.464 936.944 80.6533 907.674C54.843 878.403 34.3691 843.654 20.4007 805.41C9.15372 774.617 2.30155 742.044 0.0584802 708.913C-0.842034 695.612 8.77874 684.782 20.5419 684.782H144.076C155.839 684.782 165.17 695.692 167.398 708.791C168.822 717.171 170.993 725.387 173.887 733.311C179.506 748.696 187.743 762.676 198.127 774.451C208.51 786.227 220.837 795.568 234.404 801.941C247.97 808.314 262.511 811.594 277.195 811.594C291.88 811.594 306.421 808.314 319.987 801.941C333.554 795.568 345.881 786.227 356.264 774.451C366.648 762.676 374.885 748.696 380.504 733.311C383.398 725.387 385.569 717.171 386.993 708.791C389.221 695.692 398.552 684.782 410.315 684.782H533.849Z" fill="white"/>
<path d="M555.148 684.782C555.148 726.177 547.959 767.166 533.99 805.41C520.022 843.654 499.548 878.403 473.738 907.674C447.927 936.944 417.286 960.163 383.563 976.004C349.841 991.845 313.697 999.999 277.195 999.999V811.594C291.88 811.594 306.421 808.314 319.987 801.941C333.554 795.568 345.881 786.227 356.264 774.451C366.648 762.676 374.885 748.696 380.504 733.311C386.124 717.925 389.016 701.435 389.016 684.782H555.148Z" fill="white"/>
<path d="M389.016 24.1546C389.016 10.8144 398.551 0 410.315 0H533.849C545.612 0 555.148 10.8144 555.148 24.1546V685.99H389.016V24.1546Z" fill="white"/>
<defs>
<linearGradient id="paint0_linear_37_671" x1="918.295" y1="5.48792e-05" x2="634.256" y2="982.852" gradientUnits="userSpaceOnUse">
<stop stop-color="#3D7CFF"/>
<stop offset="1" stop-color="#29437A"/>
</linearGradient>
<linearGradient id="paint1_linear_37_671" x1="461.735" y1="-1.26713e-05" x2="761.353" y2="979.599" gradientUnits="userSpaceOnUse">
<stop stop-color="#29437A"/>
<stop offset="1" stop-color="#3D7CFF"/>
</linearGradient>
</defs>
</svg>
